<svg id="Layer_1" data-name="Layer 1" xmlns="http://www.w3.org/2000/svg" xmlns:xlink="http://www.w3.org/1999/xlink" viewBox="0 0 200 200"><defs><style>.cls-1{font-size:160px;font-family:Rubik-Regular, Rubik;}.cls-2{fill:url(#linear-gradient);}</style><linearGradient id="linear-gradient" x1="55.36" y1="91.12" x2="137.76" y2="91.12" gradientUnits="userSpaceOnUse"><stop offset="0" stop-color="#73a7ce"/><stop offset="0.13" stop-color="#6aa2cb"/><stop offset="0.36" stop-color="#5094c3"/><stop offset="0.58" stop-color="#3082b9"/><stop offset="0.92" stop-color="#2665ab"/></linearGradient></defs><text class="cls-1" transform="translate(49.28 146.32)">J</text><path class="cls-2" d="M67.52,139.28Q56,130.64,55.36,114a3.53,3.53,0,0,1,1-2.48,3.32,3.32,0,0,1,2.56-1h8.64q3.36,0,4.16,3.68,1,10.25,7.84,15.2t17.28,5q12,0,18.48-7.92T121.76,105V48.24H65a3.56,3.56,0,0,1-3.68-3.68V38A3.56,3.56,0,0,1,65,34.32h69a3.58,3.58,0,0,1,3.84,3.84v67.2q0,19.52-11,31T96.48,147.92Q79,147.92,67.52,139.28Z"/></svg>
